<svg width="37" height="37" viewBox="0 0 37 37" fill="none" xmlns="http://www.w3.org/2000/svg">
<path d="M33.7649 18.0526V19.5493C33.7649 19.9626 33.4298 20.2977 33.0165 20.2977H8.81453L15.4749 26.9431C15.6166 27.0836 15.6963 27.2749 15.6963 27.4745C15.6963 27.674 15.6166 27.8653 15.4749 28.0058L14.4123 29.0535C14.2718 29.1952 14.0805 29.2749 13.8809 29.2749C13.6814 29.2749 13.4901 29.1952 13.3496 29.0535L4.15972 19.8786C3.94915 19.6683 3.83071 19.3829 3.83044 19.0853V18.5166C3.83389 18.2196 3.95185 17.9354 4.15972 17.7233L13.3496 8.54839C13.4901 8.40672 13.6814 8.32703 13.8809 8.32703C14.0805 8.32703 14.2718 8.40672 14.4123 8.54839L15.4749 9.61106C15.6157 9.74901 15.6951 9.93781 15.6951 10.1349C15.6951 10.332 15.6157 10.5208 15.4749 10.6588L8.81453 17.3042H33.0165C33.4298 17.3042 33.7649 17.6393 33.7649 18.0526Z" fill="#333333"/>
</svg>
