<svg width="31" height="22" viewBox="0 0 31 22" fill="none" xmlns="http://www.w3.org/2000/svg">
<path d="M0.2351 11.33L0.2351 9.83326C0.2351 9.41995 0.570153 9.0849 0.983462 9.0849L25.1855 9.0849L18.5251 2.43945C18.3834 2.29894 18.3037 2.10766 18.3037 1.90812C18.3037 1.70858 18.3834 1.5173 18.5251 1.37678L19.5877 0.329074C19.7282 0.1874 19.9195 0.107709 20.1191 0.107709C20.3186 0.107709 20.5099 0.1874 20.6504 0.329074L29.8403 9.50399C30.0509 9.7143 30.1693 9.99963 30.1696 10.2973L30.1696 10.866C30.1661 11.163 30.0481 11.4472 29.8403 11.6593L20.6504 20.8342C20.5099 20.9759 20.3186 21.0555 20.1191 21.0555C19.9195 21.0555 19.7282 20.9759 19.5877 20.8342L18.5251 19.7715C18.3843 19.6336 18.3049 19.4448 18.3049 19.2477C18.3049 19.0505 18.3843 18.8617 18.5251 18.7238L25.1855 12.0783L0.983462 12.0783C0.570153 12.0783 0.2351 11.7433 0.2351 11.33Z" fill="#333333"/>
</svg>
