<svg width="37" height="37" viewBox="0 0 37 37" fill="none" xmlns="http://www.w3.org/2000/svg">
<path d="M3.2351 19.33L3.2351 17.8333C3.2351 17.42 3.57015 17.0849 3.98346 17.0849L28.1855 17.0849L21.5251 10.4395C21.3834 10.2989 21.3037 10.1077 21.3037 9.90812C21.3037 9.70858 21.3834 9.5173 21.5251 9.37678L22.5877 8.32907C22.7282 8.1874 22.9195 8.10771 23.1191 8.10771C23.3186 8.10771 23.5099 8.1874 23.6504 8.32907L32.8403 17.504C33.0509 17.7143 33.1693 17.9996 33.1696 18.2972L33.1696 18.866C33.1661 19.163 33.0481 19.4472 32.8403 19.6593L23.6504 28.8342C23.5099 28.9759 23.3186 29.0555 23.1191 29.0555C22.9195 29.0555 22.7282 28.9759 22.5877 28.8342L21.5251 27.7715C21.3843 27.6336 21.3049 27.4448 21.3049 27.2477C21.3049 27.0505 21.3843 26.8617 21.5251 26.7238L28.1855 20.0783L3.98346 20.0783C3.57015 20.0783 3.2351 19.7433 3.2351 19.33Z" fill="#333333"/>
</svg>
