<svg width="31" height="22" viewBox="0 0 31 22" fill="none" xmlns="http://www.w3.org/2000/svg">
<path d="M30.7649 10.0526V11.5493C30.7649 11.9626 30.4298 12.2977 30.0165 12.2977H5.81453L12.4749 18.9431C12.6166 19.0836 12.6963 19.2749 12.6963 19.4745C12.6963 19.674 12.6166 19.8653 12.4749 20.0058L11.4123 21.0535C11.2718 21.1952 11.0805 21.2749 10.8809 21.2749C10.6814 21.2749 10.4901 21.1952 10.3496 21.0535L1.15972 11.8786C0.949146 11.6683 0.830706 11.3829 0.830444 11.0853V10.5166C0.833893 10.2196 0.951853 9.93542 1.15972 9.7233L10.3496 0.54839C10.4901 0.406716 10.6814 0.327026 10.8809 0.327026C11.0805 0.327026 11.2718 0.406716 11.4123 0.54839L12.4749 1.61106C12.6157 1.74901 12.6951 1.93781 12.6951 2.13492C12.6951 2.33202 12.6157 2.52083 12.4749 2.65877L5.81453 9.30422H30.0165C30.4298 9.30422 30.7649 9.63927 30.7649 10.0526Z" fill="#333333"/>
</svg>
