<svg display="none" xmlns="http://www.w3.org/2000/svg">
	<symbol id="arrow-down" viewBox="0 0 330 330">
		<g>
			<path id="XMLID_225_" d="M325.607,79.393c-5.857-5.857-15.355-5.858-21.213,0.001l-139.39,139.393L25.607,79.393
			c-5.857-5.857-15.355-5.858-21.213,0.001c-5.858,5.858-5.858,15.355,0,21.213l150.004,150c2.813,2.813,6.628,4.393,10.606,4.393
			s7.794-1.581,10.606-4.394l149.996-150C331.465,94.749,331.465,85.251,325.607,79.393z"/>
		</g>
	</symbol>

	<symbol id="dark-moon" viewBox="0 0 512.000000 512.000000">
		<g>
			<path d="M1810 5071 c-509 -169 -902 -442 -1265 -878 -61 -74 -198 -291 -259
			-413 -140 -274 -229 -565 -267 -870 -20 -156 -17 -508 5 -655 84 -578 326
			-1066 729 -1474 405 -409 910 -662 1492 -747 144 -21 499 -24 645 -5 749 95
			1402 486 1826 1091 113 161 218 359 289 542 46 119 115 352 115 390 0 42 -36
			106 -73 128 -80 49 -141 36 -260 -54 -326 -249 -663 -378 -1063 -406 -156 -12
			-231 -9 -404 16 -754 109 -1373 659 -1576 1402 -84 309 -86 670 -4 986 67 260
			148 425 345 704 53 75 60 128 23 194 -52 91 -131 105 -298 49z"/>
		</g>
	</symbol>

	<symbol id="light-moon" viewBox="0 0 512.000000 512.000000">
		<g>
			<path d="M1810 5071 c-381 -125 -719 -327 -1006 -604 -232 -223 -388 -434
			-526 -710 -501 -1007 -310 -2193 483 -2988 502 -504 1199 -781 1899 -756 548
			20 1015 179 1455 496 472 339 815 837 975 1415 35 128 36 147 11 203 -26 57
			-84 87 -156 81 -44 -4 -64 -13 -119 -54 -158 -116 -259 -179 -381 -239 -283
			-138 -527 -195 -839 -195 -515 0 -993 197 -1356 559 -367 367 -565 841 -564
			1356 1 443 131 839 380 1158 63 81 81 134 65 189 -23 76 -93 129 -168 127 -21
			0 -90 -18 -153 -38z m-284 -573 c-78 -187 -133 -397 -156 -598 -14 -123 -14
			-410 0 -525 94 -767 564 -1432 1245 -1764 314 -154 585 -219 940 -228 356 -9
			626 42 964 184 57 24 106 41 109 39 8 -8 -120 -213 -199 -319 -440 -591 -1099
			-927 -1819 -927 -505 0 -948 147 -1354 448 -275 205 -510 490 -669 810 -159
			321 -229 624 -229 987 1 315 45 554 154 830 163 413 462 784 833 1032 71 48
			212 132 222 133 1 0 -18 -46 -41 -102z"/>
		</g>
	</symbol>

	<symbol id="telegram" viewBox="0 0 50 50">
		<g>
			<path d="M46.137,6.552c-0.75-0.636-1.928-0.727-3.146-0.238l-0.002,0C41.708,6.828,6.728,21.832,5.304,22.445	c-0.259,0.09-2.521,0.934-2.288,2.814c0.208,1.695,2.026,2.397,2.248,2.478l8.893,3.045c0.59,1.964,2.765,9.21,3.246,10.758	c0.3,0.965,0.789,2.233,1.646,2.494c0.752,0.29,1.5,0.025,1.984-0.355l5.437-5.043l8.777,6.845l0.209,0.125	c0.596,0.264,1.167,0.396,1.712,0.396c0.421,0,0.825-0.079,1.211-0.237c1.315-0.54,1.841-1.793,1.896-1.935l6.556-34.077	C47.231,7.933,46.675,7.007,46.137,6.552z M22,32l-3,8l-3-10l23-17L22,32z"/>
		</g>
	</symbol>

	<symbol id="whatsapp" viewBox="0 0 24 24">
		<g>
			<path d="M.057 24l1.687-6.163c-1.041-1.804-1.588-3.849-1.587-5.946.003-6.556 5.338-11.891 11.893-11.891 3.181.001 6.167 1.24 8.413 3.488 2.245 2.248 3.481 5.236 3.48 8.414-.003 6.557-5.338 11.892-11.893 11.892-1.99-.001-3.951-.5-5.688-1.448l-6.305 1.654zm6.597-3.807c1.676.995 3.276 1.591 5.392 1.592 5.448 0 9.886-4.434 9.889-9.885.002-5.462-4.415-9.89-9.881-9.892-5.452 0-9.887 4.434-9.889 9.884-.001 2.225.651 3.891 1.746 5.634l-.999 3.648 3.742-.981zm11.387-5.464c-.074-.124-.272-.198-.57-.347-.297-.149-1.758-.868-2.031-.967-.272-.099-.47-.149-.669.149-.198.297-.768.967-.941 1.165-.173.198-.347.223-.644.074-.297-.149-1.255-.462-2.39-1.475-.883-.788-1.48-1.761-1.653-2.059-.173-.297-.018-.458.13-.606.134-.133.297-.347.446-.521.151-.172.2-.296.3-.495.099-.198.05-.372-.025-.521-.075-.148-.669-1.611-.916-2.206-.242-.579-.487-.501-.669-.51l-.57-.01c-.198 0-.52.074-.792.372s-1.04 1.016-1.04 2.479 1.065 2.876 1.213 3.074c.149.198 2.095 3.2 5.076 4.487.709.306 1.263.489 1.694.626.712.226 1.36.194 1.872.118.571-.085 1.758-.719 2.006-1.413.248-.695.248-1.29.173-1.414z"/>
		</g>
	</symbol>

	<symbol id="vk" viewBox="0 0 24 24">
		<g>
			<path class="st0" d="M13.162 18.994c.609 0 .858-.406.851-.915-.031-1.917.714-2.949 2.059-1.604 1.488 1.488 1.796 2.519 3.603 2.519h3.2c.808 0 1.126-.26 1.126-.668 0-.863-1.421-2.386-2.625-3.504-1.686-1.565-1.765-1.602-.313-3.486 1.801-2.339 4.157-5.336 2.073-5.336h-3.981c-.772 0-.828.435-1.103 1.083-.995 2.347-2.886 5.387-3.604 4.922-.751-.485-.407-2.406-.35-5.261.015-.754.011-1.271-1.141-1.539-.629-.145-1.241-.205-1.809-.205-2.273 0-3.841.953-2.95 1.119 1.571.293 1.42 3.692 1.054 5.16-.638 2.556-3.036-2.024-4.035-4.305-.241-.548-.315-.974-1.175-.974h-3.255c-.492 0-.787.16-.787.516 0 .602 2.96 6.72 5.786 9.77 2.756 2.975 5.48 2.708 7.376 2.708z"/>
		</g>
	</symbol>

	<symbol id="arrow-back" viewBox="0 0 31 22">
		<g>
			<path d="M30.7649 10.0526V11.5493C30.7649 11.9626 30.4298 12.2977 30.0165 12.2977H5.81453L12.4749 18.9431C12.6166 19.0836 12.6963 19.2749 12.6963 19.4745C12.6963 19.674 12.6166 19.8653 12.4749 20.0058L11.4123 21.0535C11.2718 21.1952 11.0805 21.2749 10.8809 21.2749C10.6814 21.2749 10.4901 21.1952 10.3496 21.0535L1.15972 11.8786C0.949146 11.6683 0.830706 11.3829 0.830444 11.0853V10.5166C0.833893 10.2196 0.951853 9.93542 1.15972 9.7233L10.3496 0.54839C10.4901 0.406716 10.6814 0.327026 10.8809 0.327026C11.0805 0.327026 11.2718 0.406716 11.4123 0.54839L12.4749 1.61106C12.6157 1.74901 12.6951 1.93781 12.6951 2.13492C12.6951 2.33202 12.6157 2.52083 12.4749 2.65877L5.81453 9.30422H30.0165C30.4298 9.30422 30.7649 9.63927 30.7649 10.0526Z" fill="#333333"/>
		</g>
	</symbol>

	<symbol id="arrow-forward" viewBox="0 0 31 22">
		<g>
			<path d="M0.2351 11.33L0.2351 9.83326C0.2351 9.41995 0.570153 9.0849 0.983462 9.0849L25.1855 9.0849L18.5251 2.43945C18.3834 2.29894 18.3037 2.10766 18.3037 1.90812C18.3037 1.70858 18.3834 1.5173 18.5251 1.37678L19.5877 0.329074C19.7282 0.1874 19.9195 0.107709 20.1191 0.107709C20.3186 0.107709 20.5099 0.1874 20.6504 0.329074L29.8403 9.50399C30.0509 9.7143 30.1693 9.99963 30.1696 10.2973L30.1696 10.866C30.1661 11.163 30.0481 11.4472 29.8403 11.6593L20.6504 20.8342C20.5099 20.9759 20.3186 21.0555 20.1191 21.0555C19.9195 21.0555 19.7282 20.9759 19.5877 20.8342L18.5251 19.7715C18.3843 19.6336 18.3049 19.4448 18.3049 19.2477C18.3049 19.0505 18.3843 18.8617 18.5251 18.7238L25.1855 12.0783L0.983462 12.0783C0.570153 12.0783 0.2351 11.7433 0.2351 11.33Z" fill="#333333"/>
		</g>
	</symbol>

	<symbol id="check" viewBox="0 0 11 8">
		<g>
			<path d="M3.7224 6.44241L1.73243 4.45244C1.51069 4.2307 1.15819 4.2307 0.936446 4.45244C0.714707 4.67418 0.714707 5.02669 0.936446 5.24843L3.31872 7.6307C3.54046 7.85244 3.89865 7.85244 4.12039 7.6307L10.1471 1.60963C10.3689 1.38789 10.3689 1.03538 10.1471 0.813643C9.92541 0.591904 9.5729 0.591904 9.35116 0.813643L3.7224 6.44241Z" fill="white"/>
		</g>
	</symbol>
</svg>